<?xml version="1.0" standalone="no"?>
<!DOCTYPE svg PUBLIC "-//W3C//DTD SVG 20010904//EN"
 "http://www.w3.org/TR/2001/REC-SVG-20010904/DTD/svg10.dtd">
<svg version="1.0" xmlns="http://www.w3.org/2000/svg"
 width="42.000000pt" height="42.000000pt" viewBox="0 0 42.000000 42.000000"
 preserveAspectRatio="xMidYMid meet">

<g transform="translate(0.000000,42.000000) scale(0.100000,-0.100000)"
fill="#000000" stroke="none">
<path d="M130 368 c-132 -67 -132 -249 0 -316 56 -28 104 -28 160 0 132 67
132 249 0 316 -24 12 -60 22 -80 22 -20 0 -56 -10 -80 -22z m70 -68 l0 -80
-40 0 c-45 0 -48 7 -30 71 9 32 50 89 65 89 3 0 5 -36 5 -80z m69 36 c11 -18
23 -51 27 -74 l7 -42 -42 0 -41 0 0 80 c0 88 12 97 49 36z m-129 2 c-11 -18
-22 -52 -26 -75 -6 -41 -8 -43 -40 -43 -38 0 -40 6 -20 53 13 32 78 97 96 97
5 0 1 -14 -10 -32z m176 0 c33 -30 64 -81 64 -108 0 -5 -15 -10 -34 -10 -32 0
-34 2 -40 43 -4 23 -15 57 -26 75 -25 41 -11 41 36 0z m-202 -181 c4 -23 15
-57 26 -75 23 -37 19 -39 -26 -12 -30 19 -74 89 -74 118 0 7 14 12 34 12 32 0
34 -2 40 -43z m86 -37 c0 -66 -2 -78 -15 -74 -23 9 -53 65 -61 112 l-7 42 42
0 41 0 0 -80z m96 39 c-8 -52 -31 -95 -56 -109 -19 -10 -20 -7 -20 70 l0 80
41 0 42 0 -7 -41z m84 29 c0 -29 -44 -99 -74 -118 -45 -27 -49 -25 -26 12 11
18 22 52 26 75 6 41 8 43 40 43 20 0 34 -5 34 -12z"/>
</g>
</svg>
